<svg width="128" height="128" viewBox="0 0 128 128" fill="none" xmlns="http://www.w3.org/2000/svg">
<mask id="path-3-outside-1" maskUnits="userSpaceOnUse" x="18.3008" y="5.50635" width="109" height="114" fill="black">
<rect fill="white" x="18.3008" y="5.50635" width="109" height="114"/>
<path d="M100.994 114.351H27.7523C25.2939 114.351 23.3008 112.358 23.3008 109.9V18.7738C23.3008 16.3153 25.2939 14.3222 27.7523 14.3222H100.994C103.453 14.3222 105.446 16.3153 105.446 18.7738V109.9C105.446 112.358 103.453 114.351 100.994 114.351Z"/>
<path d="M88.8468 40.3291H36.1074C34.5708 40.3291 33.3252 39.0835 33.3252 37.5469C33.3252 36.0103 34.5708 34.7647 36.1074 34.7647H88.8468C90.3834 34.7647 91.629 36.0103 91.629 37.5469C91.629 39.0835 90.3836 40.3291 88.8468 40.3291ZM91.629 50.1741C91.629 48.6375 90.3834 47.3918 88.8468 47.3918H36.1074C34.5708 47.3918 33.3252 48.6375 33.3252 50.1741C33.3252 51.7107 34.5708 52.9563 36.1074 52.9563H88.8468C90.3836 52.9563 91.629 51.7107 91.629 50.1741ZM56.0143 62.8015C56.0143 61.2648 54.7687 60.0192 53.2321 60.0192H36.1074C34.5708 60.0192 33.3252 61.2648 33.3252 62.8015C33.3252 64.3381 34.5708 65.5837 36.1074 65.5837H53.2321C54.7687 65.5837 56.0143 64.3381 56.0143 62.8015ZM91.629 75.4286C91.629 73.892 90.3834 72.6464 88.8468 72.6464H36.1074C34.5708 72.6464 33.3252 73.892 33.3252 75.4286C33.3252 76.9652 34.5708 78.2109 36.1074 78.2109H88.8468C90.3836 78.2109 91.629 76.9652 91.629 75.4286ZM56.0143 99.8914C56.0143 98.3548 54.7687 97.1092 53.2321 97.1092H36.1074C34.5708 97.1092 33.3252 98.3548 33.3252 99.8914C33.3252 101.428 34.5708 102.674 36.1074 102.674H53.2321C54.7687 102.674 56.0143 101.428 56.0143 99.8914Z"/>
<path d="M117.16 38.7001C113.121 34.661 108.513 32.7204 106.868 34.3656L95.7433 45.4902L110.37 60.1171L121.495 48.9925C123.14 47.3473 121.199 42.7393 117.16 38.7001Z"/>
<path d="M110.109 45.7525C105.501 41.1441 100.243 38.9301 98.3666 40.8072L86.9748 52.199L103.663 68.8872L115.055 57.4954C116.932 55.6183 114.717 50.3607 110.109 45.7525Z"/>
<path d="M66.179 97.2488L56.1453 101.613C55.9717 101.689 55.7849 101.729 55.5955 101.732C55.4062 101.736 55.2181 101.702 55.0419 101.632C54.8658 101.563 54.705 101.46 54.5687 101.328C54.4325 101.197 54.3235 101.04 54.248 100.866C54.1695 100.684 54.129 100.489 54.129 100.291C54.129 100.093 54.1695 99.8973 54.248 99.7158L58.6122 89.682C59.8788 86.7698 63.2668 85.4357 66.179 86.7024C69.0913 87.969 70.4253 91.3569 69.1587 94.2692C68.5561 95.6545 67.4619 96.6879 66.179 97.2488Z"/>
<path d="M108.473 64.0417C108.484 64.0265 108.495 64.0115 108.504 63.996C109.952 61.9221 107.737 56.9293 103.335 52.5268C98.9324 48.1243 93.9398 45.9099 91.8659 47.3571C91.8503 47.3671 91.8352 47.3779 91.82 47.3886C91.8012 47.4024 91.7821 47.4154 91.7639 47.4298C91.7128 47.4692 91.6629 47.5108 91.616 47.5576L65.1415 74.032C65.1415 74.032 57.652 92.5659 60.474 95.3877C63.2958 98.2095 81.8297 90.7202 81.8297 90.7202L108.304 64.2458C108.351 64.199 108.393 64.1491 108.432 64.0978C108.446 64.0799 108.459 64.0605 108.473 64.0417Z"/>
<path d="M65.1404 74.033L64.5524 77.6971C64.4658 78.236 64.9326 78.7014 65.4711 78.6134L68.0969 78.1845C68.6155 78.0998 69.0736 78.5297 69.0221 79.0525L68.7296 82.0165C68.7177 82.138 68.7337 82.2606 68.7764 82.3749C68.8191 82.4893 68.8874 82.5923 68.976 82.6762C69.0647 82.7601 69.1714 82.8226 69.2879 82.8589C69.4045 82.8952 69.5278 82.9043 69.6484 82.8856L72.3022 82.4741C72.8449 82.39 73.309 82.8648 73.2123 83.4054L72.7583 85.9444C72.6647 86.4673 73.0975 86.9345 73.6262 86.8811L76.613 86.5798C76.7311 86.5679 76.8504 86.5824 76.9622 86.6223C77.074 86.6621 77.1755 86.7264 77.2594 86.8104C77.3433 86.8944 77.4074 86.996 77.4472 87.1079C77.4869 87.2197 77.5012 87.339 77.4891 87.4571L77.1812 90.4704C77.1283 90.9889 77.5773 91.4188 78.093 91.3432L81.8939 90.7863L60.473 99.7494C62.1819 98.0405 57.7572 93.6159 56.0483 95.3246L65.1404 74.033Z"/>
<path d="M70.6379 75.001C70.4407 75.0009 70.2479 74.9423 70.0839 74.8326C69.9199 74.723 69.792 74.5672 69.7166 74.385C69.6411 74.2027 69.6213 74.0021 69.6597 73.8087C69.6982 73.6152 69.7931 73.4374 69.9325 73.2978L92.0223 51.2078C92.2108 51.0274 92.4624 50.9279 92.7233 50.9308C92.9842 50.9336 93.2335 51.0385 93.418 51.223C93.6025 51.4075 93.7074 51.6569 93.7102 51.9177C93.7131 52.1786 93.6136 52.4302 93.4332 52.6187L71.3432 74.7087C71.2507 74.8015 71.1408 74.8751 71.0198 74.9253C70.8987 74.9754 70.769 75.0012 70.6379 75.001ZM76.9864 80.3519L99.0764 58.2619C99.2568 58.0734 99.3563 57.8218 99.3534 57.5609C99.3506 57.3 99.2457 57.0507 99.0612 56.8662C98.8767 56.6817 98.6273 56.5768 98.3664 56.574C98.1056 56.5711 97.854 56.6706 97.6655 56.851L75.5755 78.941C75.395 79.1295 75.2956 79.3811 75.2984 79.642C75.3013 79.9028 75.4062 80.1522 75.5907 80.3367C75.7751 80.5212 76.0245 80.6261 76.2854 80.6289C76.5463 80.6318 76.7979 80.5323 76.9864 80.3519ZM82.6293 85.9949L104.719 63.9048C104.9 63.7164 104.999 63.4648 104.996 63.2039C104.994 62.943 104.889 62.6936 104.704 62.5091C104.52 62.3247 104.27 62.2198 104.009 62.2169C103.749 62.2141 103.497 62.3135 103.308 62.4939L81.2184 84.584C81.038 84.7724 80.9386 85.0241 80.9414 85.2849C80.9442 85.5458 81.0491 85.7952 81.2336 85.9797C81.4181 86.1642 81.6675 86.2691 81.9284 86.2719C82.1893 86.2747 82.4409 86.1753 82.6293 85.9949Z"/>
<path d="M80.097 21.1408H47.8992C46.2402 21.1408 44.8952 19.7959 44.8952 18.1369V13.5103C44.8952 11.8513 46.2402 10.5063 47.8992 10.5063H80.097C81.756 10.5063 83.1009 11.8513 83.1009 13.5103V18.1369C83.1009 19.7959 81.756 21.1408 80.097 21.1408Z"/>
</mask>
<path d="M100.994 114.351H27.7523C25.2939 114.351 23.3008 112.358 23.3008 109.9V18.7738C23.3008 16.3153 25.2939 14.3222 27.7523 14.3222H100.994C103.453 14.3222 105.446 16.3153 105.446 18.7738V109.9C105.446 112.358 103.453 114.351 100.994 114.351Z" fill="#B9C5C6"/>
<path d="M88.8468 40.3291H36.1074C34.5708 40.3291 33.3252 39.0835 33.3252 37.5469C33.3252 36.0103 34.5708 34.7647 36.1074 34.7647H88.8468C90.3834 34.7647 91.629 36.0103 91.629 37.5469C91.629 39.0835 90.3836 40.3291 88.8468 40.3291ZM91.629 50.1741C91.629 48.6375 90.3834 47.3918 88.8468 47.3918H36.1074C34.5708 47.3918 33.3252 48.6375 33.3252 50.1741C33.3252 51.7107 34.5708 52.9563 36.1074 52.9563H88.8468C90.3836 52.9563 91.629 51.7107 91.629 50.1741ZM56.0143 62.8015C56.0143 61.2648 54.7687 60.0192 53.2321 60.0192H36.1074C34.5708 60.0192 33.3252 61.2648 33.3252 62.8015C33.3252 64.3381 34.5708 65.5837 36.1074 65.5837H53.2321C54.7687 65.5837 56.0143 64.3381 56.0143 62.8015ZM91.629 75.4286C91.629 73.892 90.3834 72.6464 88.8468 72.6464H36.1074C34.5708 72.6464 33.3252 73.892 33.3252 75.4286C33.3252 76.9652 34.5708 78.2109 36.1074 78.2109H88.8468C90.3836 78.2109 91.629 76.9652 91.629 75.4286ZM56.0143 99.8914C56.0143 98.3548 54.7687 97.1092 53.2321 97.1092H36.1074C34.5708 97.1092 33.3252 98.3548 33.3252 99.8914C33.3252 101.428 34.5708 102.674 36.1074 102.674H53.2321C54.7687 102.674 56.0143 101.428 56.0143 99.8914Z" fill="#B9C5C6"/>
<path d="M117.16 38.7001C113.121 34.661 108.513 32.7204 106.868 34.3656L95.7433 45.4902L110.37 60.1171L121.495 48.9925C123.14 47.3473 121.199 42.7393 117.16 38.7001Z" fill="#B9C5C6"/>
<path d="M110.109 45.7525C105.501 41.1441 100.243 38.9301 98.3666 40.8072L86.9748 52.199L103.663 68.8872L115.055 57.4954C116.932 55.6183 114.717 50.3607 110.109 45.7525Z" fill="#B9C5C6"/>
<path d="M66.179 97.2488L56.1453 101.613C55.9717 101.689 55.7849 101.729 55.5955 101.732C55.4062 101.736 55.2181 101.702 55.0419 101.632C54.8658 101.563 54.705 101.46 54.5687 101.328C54.4325 101.197 54.3235 101.04 54.248 100.866C54.1695 100.684 54.129 100.489 54.129 100.291C54.129 100.093 54.1695 99.8973 54.248 99.7158L58.6122 89.682C59.8788 86.7698 63.2668 85.4357 66.179 86.7024C69.0913 87.969 70.4253 91.3569 69.1587 94.2692C68.5561 95.6545 67.4619 96.6879 66.179 97.2488Z" fill="#B9C5C6"/>
<path d="M108.473 64.0417C108.484 64.0265 108.495 64.0115 108.504 63.996C109.952 61.9221 107.737 56.9293 103.335 52.5268C98.9324 48.1243 93.9398 45.9099 91.8659 47.3571C91.8503 47.3671 91.8352 47.3779 91.82 47.3886C91.8012 47.4024 91.7821 47.4154 91.7639 47.4298C91.7128 47.4692 91.6629 47.5108 91.616 47.5576L65.1415 74.032C65.1415 74.032 57.652 92.5659 60.474 95.3877C63.2958 98.2095 81.8297 90.7202 81.8297 90.7202L108.304 64.2458C108.351 64.199 108.393 64.1491 108.432 64.0978C108.446 64.0799 108.459 64.0605 108.473 64.0417Z" fill="#B9C5C6"/>
<path d="M65.1404 74.033L64.5524 77.6971C64.4658 78.236 64.9326 78.7014 65.4711 78.6134L68.0969 78.1845C68.6155 78.0998 69.0736 78.5297 69.0221 79.0525L68.7296 82.0165C68.7177 82.138 68.7337 82.2606 68.7764 82.3749C68.8191 82.4893 68.8874 82.5923 68.976 82.6762C69.0647 82.7601 69.1714 82.8226 69.2879 82.8589C69.4045 82.8952 69.5278 82.9043 69.6484 82.8856L72.3022 82.4741C72.8449 82.39 73.309 82.8648 73.2123 83.4054L72.7583 85.9444C72.6647 86.4673 73.0975 86.9345 73.6262 86.8811L76.613 86.5798C76.7311 86.5679 76.8504 86.5824 76.9622 86.6223C77.074 86.6621 77.1755 86.7264 77.2594 86.8104C77.3433 86.8944 77.4074 86.996 77.4472 87.1079C77.4869 87.2197 77.5012 87.339 77.4891 87.4571L77.1812 90.4704C77.1283 90.9889 77.5773 91.4188 78.093 91.3432L81.8939 90.7863L60.473 99.7494C62.1819 98.0405 57.7572 93.6159 56.0483 95.3246L65.1404 74.033Z" fill="#B9C5C6"/>
<path d="M70.6379 75.001C70.4407 75.0009 70.2479 74.9423 70.0839 74.8326C69.9199 74.723 69.792 74.5672 69.7166 74.385C69.6411 74.2027 69.6213 74.0021 69.6597 73.8087C69.6982 73.6152 69.7931 73.4374 69.9325 73.2978L92.0223 51.2078C92.2108 51.0274 92.4624 50.9279 92.7233 50.9308C92.9842 50.9336 93.2335 51.0385 93.418 51.223C93.6025 51.4075 93.7074 51.6569 93.7102 51.9177C93.7131 52.1786 93.6136 52.4302 93.4332 52.6187L71.3432 74.7087C71.2507 74.8015 71.1408 74.8751 71.0198 74.9253C70.8987 74.9754 70.769 75.0012 70.6379 75.001ZM76.9864 80.3519L99.0764 58.2619C99.2568 58.0734 99.3563 57.8218 99.3534 57.5609C99.3506 57.3 99.2457 57.0507 99.0612 56.8662C98.8767 56.6817 98.6273 56.5768 98.3664 56.574C98.1056 56.5711 97.854 56.6706 97.6655 56.851L75.5755 78.941C75.395 79.1295 75.2956 79.3811 75.2984 79.642C75.3013 79.9028 75.4062 80.1522 75.5907 80.3367C75.7751 80.5212 76.0245 80.6261 76.2854 80.6289C76.5463 80.6318 76.7979 80.5323 76.9864 80.3519ZM82.6293 85.9949L104.719 63.9048C104.9 63.7164 104.999 63.4648 104.996 63.2039C104.994 62.943 104.889 62.6936 104.704 62.5091C104.52 62.3247 104.27 62.2198 104.009 62.2169C103.749 62.2141 103.497 62.3135 103.308 62.4939L81.2184 84.584C81.038 84.7724 80.9386 85.0241 80.9414 85.2849C80.9442 85.5458 81.0491 85.7952 81.2336 85.9797C81.4181 86.1642 81.6675 86.2691 81.9284 86.2719C82.1893 86.2747 82.4409 86.1753 82.6293 85.9949Z" fill="#B9C5C6"/>
<path d="M80.097 21.1408H47.8992C46.2402 21.1408 44.8952 19.7959 44.8952 18.1369V13.5103C44.8952 11.8513 46.2402 10.5063 47.8992 10.5063H80.097C81.756 10.5063 83.1009 11.8513 83.1009 13.5103V18.1369C83.1009 19.7959 81.756 21.1408 80.097 21.1408Z" fill="#B9C5C6"/>
<path d="M100.994 114.351H27.7523C25.2939 114.351 23.3008 112.358 23.3008 109.9V18.7738C23.3008 16.3153 25.2939 14.3222 27.7523 14.3222H100.994C103.453 14.3222 105.446 16.3153 105.446 18.7738V109.9C105.446 112.358 103.453 114.351 100.994 114.351Z" stroke="black" stroke-width="10" mask="url(#path-3-outside-1)"/>
<path d="M88.8468 40.3291H36.1074C34.5708 40.3291 33.3252 39.0835 33.3252 37.5469C33.3252 36.0103 34.5708 34.7647 36.1074 34.7647H88.8468C90.3834 34.7647 91.629 36.0103 91.629 37.5469C91.629 39.0835 90.3836 40.3291 88.8468 40.3291ZM91.629 50.1741C91.629 48.6375 90.3834 47.3918 88.8468 47.3918H36.1074C34.5708 47.3918 33.3252 48.6375 33.3252 50.1741C33.3252 51.7107 34.5708 52.9563 36.1074 52.9563H88.8468C90.3836 52.9563 91.629 51.7107 91.629 50.1741ZM56.0143 62.8015C56.0143 61.2648 54.7687 60.0192 53.2321 60.0192H36.1074C34.5708 60.0192 33.3252 61.2648 33.3252 62.8015C33.3252 64.3381 34.5708 65.5837 36.1074 65.5837H53.2321C54.7687 65.5837 56.0143 64.3381 56.0143 62.8015ZM91.629 75.4286C91.629 73.892 90.3834 72.6464 88.8468 72.6464H36.1074C34.5708 72.6464 33.3252 73.892 33.3252 75.4286C33.3252 76.9652 34.5708 78.2109 36.1074 78.2109H88.8468C90.3836 78.2109 91.629 76.9652 91.629 75.4286ZM56.0143 99.8914C56.0143 98.3548 54.7687 97.1092 53.2321 97.1092H36.1074C34.5708 97.1092 33.3252 98.3548 33.3252 99.8914C33.3252 101.428 34.5708 102.674 36.1074 102.674H53.2321C54.7687 102.674 56.0143 101.428 56.0143 99.8914Z" stroke="black" stroke-width="10" mask="url(#path-3-outside-1)"/>
<path d="M117.16 38.7001C113.121 34.661 108.513 32.7204 106.868 34.3656L95.7433 45.4902L110.37 60.1171L121.495 48.9925C123.14 47.3473 121.199 42.7393 117.16 38.7001Z" stroke="black" stroke-width="10" mask="url(#path-3-outside-1)"/>
<path d="M110.109 45.7525C105.501 41.1441 100.243 38.9301 98.3666 40.8072L86.9748 52.199L103.663 68.8872L115.055 57.4954C116.932 55.6183 114.717 50.3607 110.109 45.7525Z" stroke="black" stroke-width="10" mask="url(#path-3-outside-1)"/>
<path d="M66.179 97.2488L56.1453 101.613C55.9717 101.689 55.7849 101.729 55.5955 101.732C55.4062 101.736 55.2181 101.702 55.0419 101.632C54.8658 101.563 54.705 101.46 54.5687 101.328C54.4325 101.197 54.3235 101.04 54.248 100.866C54.1695 100.684 54.129 100.489 54.129 100.291C54.129 100.093 54.1695 99.8973 54.248 99.7158L58.6122 89.682C59.8788 86.7698 63.2668 85.4357 66.179 86.7024C69.0913 87.969 70.4253 91.3569 69.1587 94.2692C68.5561 95.6545 67.4619 96.6879 66.179 97.2488Z" stroke="black" stroke-width="10" mask="url(#path-3-outside-1)"/>
<path d="M108.473 64.0417C108.484 64.0265 108.495 64.0115 108.504 63.996C109.952 61.9221 107.737 56.9293 103.335 52.5268C98.9324 48.1243 93.9398 45.9099 91.8659 47.3571C91.8503 47.3671 91.8352 47.3779 91.82 47.3886C91.8012 47.4024 91.7821 47.4154 91.7639 47.4298C91.7128 47.4692 91.6629 47.5108 91.616 47.5576L65.1415 74.032C65.1415 74.032 57.652 92.5659 60.474 95.3877C63.2958 98.2095 81.8297 90.7202 81.8297 90.7202L108.304 64.2458C108.351 64.199 108.393 64.1491 108.432 64.0978C108.446 64.0799 108.459 64.0605 108.473 64.0417Z" stroke="black" stroke-width="10" mask="url(#path-3-outside-1)"/>
<path d="M65.1404 74.033L64.5524 77.6971C64.4658 78.236 64.9326 78.7014 65.4711 78.6134L68.0969 78.1845C68.6155 78.0998 69.0736 78.5297 69.0221 79.0525L68.7296 82.0165C68.7177 82.138 68.7337 82.2606 68.7764 82.3749C68.8191 82.4893 68.8874 82.5923 68.976 82.6762C69.0647 82.7601 69.1714 82.8226 69.2879 82.8589C69.4045 82.8952 69.5278 82.9043 69.6484 82.8856L72.3022 82.4741C72.8449 82.39 73.309 82.8648 73.2123 83.4054L72.7583 85.9444C72.6647 86.4673 73.0975 86.9345 73.6262 86.8811L76.613 86.5798C76.7311 86.5679 76.8504 86.5824 76.9622 86.6223C77.074 86.6621 77.1755 86.7264 77.2594 86.8104C77.3433 86.8944 77.4074 86.996 77.4472 87.1079C77.4869 87.2197 77.5012 87.339 77.4891 87.4571L77.1812 90.4704C77.1283 90.9889 77.5773 91.4188 78.093 91.3432L81.8939 90.7863L60.473 99.7494C62.1819 98.0405 57.7572 93.6159 56.0483 95.3246L65.1404 74.033Z" stroke="black" stroke-width="10" mask="url(#path-3-outside-1)"/>
<path d="M70.6379 75.001C70.4407 75.0009 70.2479 74.9423 70.0839 74.8326C69.9199 74.723 69.792 74.5672 69.7166 74.385C69.6411 74.2027 69.6213 74.0021 69.6597 73.8087C69.6982 73.6152 69.7931 73.4374 69.9325 73.2978L92.0223 51.2078C92.2108 51.0274 92.4624 50.9279 92.7233 50.9308C92.9842 50.9336 93.2335 51.0385 93.418 51.223C93.6025 51.4075 93.7074 51.6569 93.7102 51.9177C93.7131 52.1786 93.6136 52.4302 93.4332 52.6187L71.3432 74.7087C71.2507 74.8015 71.1408 74.8751 71.0198 74.9253C70.8987 74.9754 70.769 75.0012 70.6379 75.001ZM76.9864 80.3519L99.0764 58.2619C99.2568 58.0734 99.3563 57.8218 99.3534 57.5609C99.3506 57.3 99.2457 57.0507 99.0612 56.8662C98.8767 56.6817 98.6273 56.5768 98.3664 56.574C98.1056 56.5711 97.854 56.6706 97.6655 56.851L75.5755 78.941C75.395 79.1295 75.2956 79.3811 75.2984 79.642C75.3013 79.9028 75.4062 80.1522 75.5907 80.3367C75.7751 80.5212 76.0245 80.6261 76.2854 80.6289C76.5463 80.6318 76.7979 80.5323 76.9864 80.3519ZM82.6293 85.9949L104.719 63.9048C104.9 63.7164 104.999 63.4648 104.996 63.2039C104.994 62.943 104.889 62.6936 104.704 62.5091C104.52 62.3247 104.27 62.2198 104.009 62.2169C103.749 62.2141 103.497 62.3135 103.308 62.4939L81.2184 84.584C81.038 84.7724 80.9386 85.0241 80.9414 85.2849C80.9442 85.5458 81.0491 85.7952 81.2336 85.9797C81.4181 86.1642 81.6675 86.2691 81.9284 86.2719C82.1893 86.2747 82.4409 86.1753 82.6293 85.9949Z" stroke="black" stroke-width="10" mask="url(#path-3-outside-1)"/>
<path d="M80.097 21.1408H47.8992C46.2402 21.1408 44.8952 19.7959 44.8952 18.1369V13.5103C44.8952 11.8513 46.2402 10.5063 47.8992 10.5063H80.097C81.756 10.5063 83.1009 11.8513 83.1009 13.5103V18.1369C83.1009 19.7959 81.756 21.1408 80.097 21.1408Z" stroke="black" stroke-width="10" mask="url(#path-3-outside-1)"/>
<path d="M100.994 114.351H27.7523C25.2939 114.351 23.3008 112.358 23.3008 109.9V18.7738C23.3008 16.3154 25.2939 14.3223 27.7523 14.3223H100.994C103.453 14.3223 105.446 16.3154 105.446 18.7738V109.9C105.446 112.358 103.453 114.351 100.994 114.351V114.351Z" fill="#DCE2E2"/>
<path d="M88.8466 40.3292H36.1072C34.5706 40.3292 33.325 39.0836 33.325 37.547C33.325 36.0104 34.5706 34.7648 36.1072 34.7648H88.8466C90.3832 34.7648 91.6288 36.0104 91.6288 37.547C91.6288 39.0836 90.3834 40.3292 88.8466 40.3292V40.3292ZM91.6288 50.1742C91.6288 48.6376 90.3832 47.3919 88.8466 47.3919H36.1072C34.5706 47.3919 33.325 48.6376 33.325 50.1742C33.325 51.7108 34.5706 52.9564 36.1072 52.9564H88.8466C90.3834 52.9564 91.6288 51.7108 91.6288 50.1742V50.1742ZM56.0141 62.8016C56.0141 61.2649 54.7685 60.0193 53.2319 60.0193H36.1072C34.5706 60.0193 33.325 61.2649 33.325 62.8016C33.325 64.3382 34.5706 65.5838 36.1072 65.5838H53.2319C54.7685 65.5838 56.0141 64.3382 56.0141 62.8016V62.8016ZM91.6288 75.4287C91.6288 73.8921 90.3832 72.6465 88.8466 72.6465H36.1072C34.5706 72.6465 33.325 73.8921 33.325 75.4287C33.325 76.9653 34.5706 78.211 36.1072 78.211H88.8466C90.3834 78.211 91.6288 76.9653 91.6288 75.4287V75.4287ZM56.0141 99.8915C56.0141 98.3549 54.7685 97.1093 53.2319 97.1093H36.1072C34.5706 97.1093 33.325 98.3549 33.325 99.8915C33.325 101.428 34.5706 102.674 36.1072 102.674H53.2319C54.7685 102.674 56.0141 101.428 56.0141 99.8915Z" fill="#96A9B2"/>
<path d="M96.5986 39.0395L89.874 45.7642C89.8666 45.7713 89.8593 45.7786 89.8519 45.7859L89.848 45.7898L63.3736 72.2642L63.014 72.6238L62.8413 73.0513L62.8411 73.0512L53.749 94.3429L53.8337 94.4002L51.9553 98.7187L51.9531 98.7239C51.7392 99.2186 51.6289 99.7519 51.6289 100.291C51.6289 100.83 51.7392 101.363 51.9531 101.858L51.9553 101.863C52.1618 102.338 52.4597 102.767 52.8322 103.127C53.2046 103.486 53.6442 103.769 54.1258 103.959C54.6075 104.148 55.1218 104.241 55.6394 104.232C56.1569 104.223 56.6676 104.112 57.1423 103.906L61.4283 102.041L61.4379 102.056L82.8588 93.0926L82.8358 93.01L83.2377 92.8476L83.5973 92.488L103.663 72.4226L103.663 72.4228L105.431 70.655L116.822 59.2631L116.823 59.2631C117.826 58.2591 118.183 56.9783 118.219 55.8032L123.262 50.7603C124.304 49.7184 124.601 48.3702 124.579 47.2112C124.557 46.0618 124.229 44.8813 123.763 43.7737C122.825 41.546 121.118 39.1227 118.928 36.9324C116.737 34.7421 114.314 33.0354 112.086 32.0973C110.979 31.6308 109.798 31.3029 108.649 31.2813C107.49 31.2595 106.142 31.556 105.1 32.5979C105.1 32.5979 105.1 32.598 105.1 32.598L100.055 37.6425C98.8811 37.6795 97.6016 38.0364 96.5986 39.0395Z" fill="#E5AA6E" stroke="black" stroke-width="5"/>
<path d="M117.16 38.7002C113.121 34.661 108.513 32.7204 106.868 34.3657L95.7432 45.4902L110.37 60.1171L121.495 48.9925C123.14 47.3473 121.199 42.7393 117.16 38.7002V38.7002Z" fill="#FF6E83"/>
<path d="M110.109 45.7525C105.501 41.1441 100.243 38.9301 98.3665 40.8072L86.9746 52.1991L103.663 68.8873L115.055 57.4954C116.932 55.6183 114.717 50.3607 110.109 45.7525V45.7525Z" fill="#BFBCAF"/>
<path d="M66.1789 97.2489L56.1452 101.613C55.9715 101.689 55.7847 101.729 55.5954 101.732C55.4061 101.736 55.218 101.702 55.0418 101.632C54.8656 101.563 54.7048 101.46 54.5686 101.328C54.4324 101.197 54.3234 101.04 54.2479 100.866C54.1694 100.684 54.1289 100.489 54.1289 100.291C54.1289 100.093 54.1694 99.8973 54.2479 99.7158L58.6121 89.682C59.8787 86.7698 63.2666 85.4357 66.1789 86.7024C69.0912 87.969 70.4252 91.3569 69.1585 94.2692C68.5559 95.6545 67.4618 96.6879 66.1789 97.2489Z" fill="#2B2622"/>
<path d="M108.473 64.0418C108.484 64.0265 108.495 64.0115 108.504 63.996C109.952 61.9221 107.737 56.9294 103.335 52.5269C98.9324 48.1244 93.9398 45.9099 91.8659 47.3571C91.8503 47.3672 91.8352 47.3779 91.82 47.3886C91.8012 47.4024 91.782 47.4154 91.7639 47.4298C91.7128 47.4692 91.6629 47.5108 91.6159 47.5576L65.1415 74.032C65.1415 74.032 57.652 92.566 60.474 95.3878C63.2958 98.2096 81.8297 90.7202 81.8297 90.7202L108.304 64.2458C108.351 64.199 108.393 64.1492 108.432 64.0978C108.446 64.0799 108.459 64.0605 108.473 64.0418V64.0418Z" fill="#FFD469"/>
<path d="M65.1402 74.0331L64.5522 77.6972C64.4657 78.2361 64.9325 78.7014 65.471 78.6134L68.0968 78.1846C68.6153 78.0999 69.0734 78.5298 69.0219 79.0526L68.7295 82.0166C68.7175 82.1381 68.7335 82.2607 68.7762 82.375C68.8189 82.4894 68.8872 82.5924 68.9759 82.6763C69.0645 82.7602 69.1712 82.8227 69.2878 82.859C69.4043 82.8953 69.5276 82.9044 69.6482 82.8857L72.3021 82.4741C72.8447 82.3901 73.3088 82.8649 73.2122 83.4055L72.7581 85.9445C72.6646 86.4674 73.0974 86.9346 73.626 86.8812L76.6129 86.5799C76.731 86.5679 76.8502 86.5824 76.962 86.6223C77.0738 86.6622 77.1754 86.7265 77.2592 86.8105C77.3431 86.8945 77.4073 86.9961 77.447 87.108C77.4867 87.2198 77.5011 87.3391 77.4889 87.4572L77.181 90.4705C77.1281 90.989 77.5772 91.4189 78.0928 91.3433L81.8937 90.7864L60.4729 99.7495C62.1818 98.0406 57.757 93.616 56.0481 95.3247L65.1402 74.0331V74.0331Z" fill="#E5AA6E"/>
<path d="M70.638 75.001C70.4407 75.0009 70.2479 74.9424 70.0839 74.8327C69.9199 74.7231 69.7921 74.5673 69.7166 74.385C69.6411 74.2028 69.6213 74.0022 69.6597 73.8087C69.6982 73.6152 69.7931 73.4375 69.9325 73.2979L92.0224 51.2079C92.2108 51.0274 92.4624 50.928 92.7233 50.9308C92.9842 50.9337 93.2336 51.0386 93.4181 51.2231C93.6025 51.4075 93.7074 51.6569 93.7103 51.9178C93.7131 52.1787 93.6137 52.4303 93.4333 52.6188L71.3432 74.7088C71.2507 74.8016 71.1408 74.8752 71.0198 74.9254C70.8988 74.9755 70.769 75.0012 70.638 75.001V75.001ZM76.9864 80.352L99.0764 58.2619C99.2569 58.0735 99.3563 57.8219 99.3535 57.561C99.3506 57.3001 99.2457 57.0507 99.0612 56.8662C98.8768 56.6818 98.6274 56.5769 98.3665 56.574C98.1056 56.5712 97.854 56.6706 97.6655 56.851L75.5755 78.9411C75.3951 79.1295 75.2956 79.3812 75.2985 79.642C75.3013 79.9029 75.4062 80.1523 75.5907 80.3368C75.7752 80.5213 76.0246 80.6262 76.2854 80.629C76.5463 80.6318 76.7979 80.5324 76.9864 80.352ZM82.6294 85.995L104.719 63.9049C104.9 63.7165 104.999 63.4648 104.996 63.204C104.994 62.9431 104.889 62.6937 104.704 62.5092C104.52 62.3247 104.27 62.2198 104.009 62.217C103.749 62.2142 103.497 62.3136 103.309 62.494L81.2185 84.5841C81.038 84.7725 80.9386 85.0241 80.9414 85.285C80.9443 85.5459 81.0492 85.7953 81.2337 85.9798C81.4181 86.1642 81.6675 86.2691 81.9284 86.272C82.1893 86.2748 82.4409 86.1754 82.6294 85.995Z" fill="#FFB636"/>
<path d="M80.0968 21.1408H47.899C46.24 21.1408 44.895 19.7959 44.895 18.1369V13.5103C44.895 11.8513 46.24 10.5063 47.899 10.5063H80.0968C81.7558 10.5063 83.1007 11.8513 83.1007 13.5103V18.1369C83.1007 19.7959 81.7558 21.1408 80.0968 21.1408Z" fill="#B9C5C6"/>
</svg>
